<svg clip-rule="evenodd" fill-rule="evenodd" height="1.707in" image-rendering="optimizeQuality" shape-rendering="geometricPrecision" text-rendering="geometricPrecision" viewBox="0 0 1.70666 1.70666" width="1.707in" xmlns="http://www.w3.org/2000/svg"><g id="Layer_x0020_1"><path d="m1.58728 1.55839h-1.46791c-.0657795 0-.119299-.0535157-.119299-.119299v-.825484h1.7065v.825484c0 .0657835-.0535197.119299-.119299.119299zm-.91885-1.24335c-.0363386 0-.0659016.029563-.0659016.0658976s.0295669.0658976.0659016.0658976c.0363346 0 .0658976-.029563.0658976-.0658976s-.029563-.0658976-.0658976-.0658976zm-.389075 0c-.0363386 0-.0659016.029563-.0659016.0658976s.029563.0658976.0659016.0658976c.0363346 0 .0658976-.029563.0658976-.0658976s-.029563-.0658976-.0658976-.0658976zm1.27168 1.10946h-1.39541c-.0119685 0-.0216654-.00969685-.0216654-.0216614v-.677024c0-.0119646.00969685-.0216654.0216654-.0216654h1.39541c.0119646 0 .0216614.00970079.0216614.0216654v.677024c0 .0119646-.00969685.0216614-.0216614.0216614zm-1.12857-.161921c-.0119646 0-.0216654-.00969685-.0216654-.0216614l.00000394-.353185c0-.0119646.00969685-.0216654.0216614-.0216654h.174169c.0119685 0 .0216654.00970079.0216654.0216654 0 .0119685-.00969685.0216654-.0216654.0216654h-.152504v.12165h.152504c.0119685 0 .0216654.00969685.0216654.0216614 0 .0119685-.00969685.0216654-.0216654.0216654h-.152504v.166543c0 .0119646-.00970079.0216614-.0216654.0216614zm.681374-.00010236c-.0119646 0-.0216654-.00970079-.0216654-.0216654v-.176476s0 0 0-.00000394v-.176496c0-.0119685.00970079-.0216654.0216654-.0216654h.0921024c.0606063 0 .109906.0492992.109906.109906 0 .0606181-.0492992.109917-.109906.109917h-.070437v.154815c0 .0119685-.00969685.0216693-.0216654.0216693zm.0216654-.219811h.070437c.0367087 0 .0665787-.0298622.0665787-.0665748 0-.0367283-.0298661-.0665945-.0665787-.0665945h-.070437v.133169zm-.275264.219913c-.0119646 0-.0216654-.00969685-.0216654-.0216614v-.331516h-.0906024c-.0119646 0-.0216654-.00970079-.0216654-.0216654 0-.0119646.00970079-.0216654.0216654-.0216654h.224535c.0119646 0 .0216654.00970079.0216654.0216654 0 .0119646-.00970079.0216654-.0216654.0216654h-.0906024v.331516c0 .0119646-.00969685.0216614-.0216654.0216614zm-.672957.118594h1.35209v-.633693h-1.35209z" fill="#ff5757"/><path d="m1.70658.267575c0-.0657835-.0535197-.119303-.119299-.119303h-1.46791c-.0657795 0-.119299.0535197-.119299.119303v.302701h1.7065v-.302701zm-1.03815.00414173c.0602244 0 .109224.0489961.109224.109224 0 .0602283-.0489961.109232-.109224.109232-.0602323 0-.109228-.0490039-.109228-.109232 0-.0602283.049-.109224.109228-.109224zm-.27985.109224c.00000394.0602283-.049.109232-.109224.109232-.0602323 0-.109232-.0490039-.109232-.109232 0-.0602283.0490039-.109224.109232-.109224.0602244 0 .109224.0489961.109224.109224zm.54011-.0216654h.586165c.0119646 0 .0216654.00970079.0216654.0216654 0 .0119685-.00970079.0216654-.0216614.0216654h-.586169c-.0119646 0-.0216654-.00969685-.0216654-.0216654 0-.0119646.00970079-.0216654.0216654-.0216654z" fill="#ffcf59"/></g></svg>