<svg id="Layer_1" enable-background="new 0 0 24 24" viewBox="0 0 24 24" xmlns="http://www.w3.org/2000/svg"
     xmlns:xlink="http://www.w3.org/1999/xlink">
    <linearGradient id="SVGID_1_" gradientUnits="userSpaceOnUse" x1=".625" x2="23.714" y1="5.724" y2="16.49">
        <stop offset="0" stop-color="#fff" stop-opacity=".2"/>
        <stop offset="1" stop-color="#fff" stop-opacity="0"/>
    </linearGradient>
    <g>
        <path
            d="m22.1713867 7.3562379c.1484375-.9858675.0483398-3.5209553-.8637695-5.9873295l-.1367188-.3689084-.3911133.0462962c-.0961914.0112087-2.3491211.3011696-5.7329102 2.7461014-.736328-.1759258-1.8256835-.2753411-3.0468749-.2753411s-2.3100586.0994153-3.046875.2753412c-3.3847656-2.4454192-5.6376953-2.7348928-5.7338867-2.7461015l-.3911133-.0462962-.1367187.3689084c-.9121094 2.4663742-1.0117188 5.001462-.8632813 5.9873295-1.2294922 1.5175433-1.828125 3.2646193-1.828125 5.3333335 0 6.6476612 3.4921875 10.3084793 9.8334961 10.3084793l2.1669922.0019493 2.1655273-.0019493c6.3413086 0 9.8339844-3.6608181 9.8339844-10.3084793 0-2.0687142-.5986328-3.8162775-1.8286133-5.3333335z"
            fill="#333"/>
        <path
            d="m19.5366211 11.1315794c-1.293457-1.3084803-3.2001953-1.1608191-5.21875-1.0034113-.7363281.0575047-1.4975586.1169586-2.2822266.1169586h-.0708008c-.784668 0-1.5458984-.059454-2.2822266-.1169586-2.0185547-.1564331-3.9248047-.305069-5.2197266 1.0038986-.970703.9844046-1.4628905 2.2115002-1.4628905 3.6461983 0 5.7451267 4.4287109 6.2256336 9.0356445 6.2256336 4.5356446 0 8.9643555-.4805069 8.9643555-6.2256336 0-1.4346981-.4921875-2.6617937-1.4633789-3.6466856z"
            fill="#e0c1a9"/>
        <path
            d="m2.828125 1.2495127.3911133.0462962c.0961914.0112087 2.3491211.3006823 5.7338867 2.7461013.7368164-.1759258 1.8256836-.2753411 3.046875-.2753411s2.3105469.0994153 3.046875.275341c3.3837891-2.4449315 5.6367188-2.7348926 5.7329102-2.7461014l.3911133-.0462962.1367188.3689084c.6672974 1.8043981.8974609 3.6392546.9161987 4.8836503.0111084-1.2386699-.2017822-3.2013283-.9161987-5.133163l-.1367189-.3689082-.3911133.0462962c-.0961914.0112087-2.3491211.3011696-5.7329102 2.7461014-.736328-.1759258-1.8256835-.2753411-3.0468749-.2753411s-2.3100586.0994153-3.046875.2753412c-3.3847656-2.4454192-5.6376953-2.7348928-5.7338867-2.7461015l-.3911133-.0462962-.1367187.3689084c-.7142945 1.9314692-.927002 3.8938842-.9157715 5.1325536.0186157-1.2443958.2485962-3.0789473.9157715-4.8830409z"
            fill="#fff" opacity=".1"/>
        <path
            d="m22.1929321 7.3546753c.0236816-.2418823.0361328-.5344238.0308838-.8848267-.0031128.3434448-.0202637.6417236-.0524292.855835.0076904.0094604.013916.0194702.0215454.0289917z"
            fill="#82c342"/>
        <path
            d="m14.1660156 22.7485371-2.1655273.0019512-2.1669922-.0019512c-6.298584 0-9.7823486-3.6150703-9.8291016-10.1778746-.0004882.040144-.0043945.0785208-.0043945.1189089 0 6.6476612 3.4921875 10.3084793 9.8334961 10.3084793l2.1669922.0019493 2.1655273-.0019493c6.3413086 0 9.8339844-3.6608181 9.8339844-10.3084793 0-.0403881-.0039063-.0787649-.0043945-.1189089-.046753 6.5628653-3.5310059 10.1778746-9.8295899 10.1778746z"
            fill="#010101" opacity=".2"/>
        <path
            d="m1.7756348 6.4692383c-.005249.350647.0072632.6434326.0309448.885437.0076294-.0095215.013855-.0195313.0215454-.0289917-.0321655-.2142334-.0493774-.5127564-.0524902-.8564453z"
            fill="#82c342"/>
        <path
            d="m9.6826172 10.3530273c.7363281.0576172 1.4975586.1171875 2.2822266.1171875h.0708008c.784668 0 1.5458984-.0595703 2.2822266-.1171875 2.0185547-.1577148 3.925293-.3056641 5.21875 1.0053711.9501343.9654541 1.4345703 2.1661987 1.4553833 3.5637817.0008544-.0554809.0079955-.1034545.0079955-.1599731 0-1.4375-.4921875-2.6669922-1.4633789-3.6538086-1.293457-1.3110352-3.2001953-1.1630859-5.21875-1.0053711-.7363281.0576172-1.4975586.1171875-2.2822266.1171875h-.0708008c-.784668 0-1.5458984-.0595703-2.2822266-.1171875-2.0185547-.1567383-3.9248047-.3056641-5.2197266 1.0058594-.970703.9863281-1.4628905 2.2158203-1.4628905 3.6533203 0 .0565186.0071411.1044922.0079956.1599731.020813-1.397583.505249-2.5983276 1.454895-3.5632935 1.2949219-1.3115233 3.2011719-1.1625975 5.2197266-1.0058593z"
            fill="#010101" opacity=".1"/>
        <path d="m16 12c-1.1401367 0-2 1.5048828-2 3.5s.8598633 3.5 2 3.5 2-1.5048828 2-3.5-.8598633-3.5-2-3.5z"
              fill="#fff"/>
        <path d="m16 12.5c-.8551025 0-1.5 1.2898998-1.5 3s.6448975 3 1.5 3 1.5-1.2898998 1.5-3-.6448975-3-1.5-3z"
              fill="#994822"/>
        <circle cx="15.585" cy="14.085" fill="#fff" r=".415"/>
        <circle cx="12.085" cy="18.085" fill="#994822" r=".415"/>
        <g>
            <path
                d="m12.0854492 19.5795898c-1.0776367 0-1.5073242-.6821289-1.6420898-.9750977l.4541016-.2089844c.0947266.2055664.3994141.684082 1.1879883.684082.5683594 0 .96875-.2314453 1.1894531-.6884766l.4501953.2177734c-.3027344.6259768-.8847657.9707033-1.6396485.9707033z"
                fill="#994822"/>
        </g>
        <path d="m8 12c-1.1401367 0-2 1.5048828-2 3.5s.8598633 3.5 2 3.5 2-1.5048828 2-3.5-.8598633-3.5-2-3.5z"
              fill="#fff"/>
        <path d="m8 12.5c-.8551025 0-1.5 1.2898998-1.5 3s.6448975 3 1.5 3 1.5-1.2898998 1.5-3-.6448975-3-1.5-3z"
              fill="#994822"/>
        <circle cx="7.585" cy="14.085" fill="#fff" r=".415"/>
        <path
            d="m22.1713867 7.3562379c.1484375-.9858675.0483398-3.5209553-.8637695-5.9873295l-.1367188-.3689084-.3911133.0462962c-.0961914.0112087-2.3491211.3011696-5.7329102 2.7461014-.736328-.1759258-1.8256835-.2753411-3.0468749-.2753411s-2.3100586.0994153-3.046875.2753412c-3.3847656-2.4454192-5.6376953-2.7348928-5.7338867-2.7461015l-.3911133-.0462962-.1367187.3689084c-.9121094 2.4663742-1.0117188 5.001462-.8632813 5.9873295-1.2294922 1.5175433-1.828125 3.2646193-1.828125 5.3333335 0 6.6476612 3.4921875 10.3084793 9.8334961 10.3084793l2.1669922.0019493 2.1655273-.0019493c6.3413086 0 9.8339844-3.6608181 9.8339844-10.3084793 0-2.0687142-.5986328-3.8162775-1.8286133-5.3333335z"
            fill="url(#SVGID_1_)"/>
    </g>
    <g/>
    <g/>
    <g/>
    <g/>
    <g/>
    <g/>
    <g/>
    <g/>
    <g/>
    <g/>
    <g/>
    <g/>
    <g/>
    <g/>
    <g/>
</svg>
